<?xml version="1.0" encoding="UTF-8"?>
<svg version="1.1" xmlns="http://www.w3.org/2000/svg" width="1024" height="1024">
<path d="M0 0 C5.07057633 2.78384583 8.1657459 5.49723769 10 11 C10.08610514 12.42718637 10.11771828 13.85806648 10.11352539 15.2878418 C10.11344986 16.14850754 10.11337433 17.00917328 10.11329651 17.8959198 C10.10813522 18.82100845 10.10297394 19.74609711 10.09765625 20.69921875 C10.09553383 22.12449638 10.09553383 22.12449638 10.09336853 23.5785675 C10.08776875 26.61491029 10.07521632 29.65117948 10.0625 32.6875 C10.05748497 34.74544164 10.05292207 36.80338444 10.04882812 38.86132812 C10.0377994 43.90758046 10.02053493 48.95377775 10 54 C11.04648209 53.98153267 11.04648209 53.98153267 12.11410522 53.96269226 C14.03722259 53.9287549 15.9603493 53.89534342 17.88348389 53.86239624 C19.90245293 53.82565053 21.92126706 53.78013628 23.93994141 53.72973633 C30.6602603 53.67240835 34.75101368 54.71692853 40.3125 58.625 C42.86291711 62.21447593 43.31557649 65.64064107 43 70 C41.79484333 73.56834096 40.07912771 76.24788069 36.9375 78.4375 C35 79 35 79 32 79 C32 84.94 32 90.88 32 97 C33.26714844 96.79503906 34.53429687 96.59007812 35.83984375 96.37890625 C37.53904452 96.10665861 39.2382643 95.83452954 40.9375 95.5625 C41.76830078 95.42779297 42.59910156 95.29308594 43.45507812 95.15429688 C44.28330078 95.02216797 45.11152344 94.89003906 45.96484375 94.75390625 C46.7137085 94.63345947 47.46257324 94.5130127 48.23413086 94.38891602 C55.14591033 93.41703282 61.95304877 92.8306155 68.93359375 92.76171875 C70.17372978 92.74702797 70.17372978 92.74702797 71.43891907 92.73204041 C90.34059029 92.55438709 108.42961497 93.10602595 127 97 C128.19044922 97.24621094 129.38089844 97.49242187 130.60742188 97.74609375 C135.6502677 98.79267301 140.69136803 99.84699602 145.72924805 100.91723633 C155.13620489 102.89353053 164.41151407 104.35375408 174 105 C174.80727539 105.05494629 175.61455078 105.10989258 176.44628906 105.16650391 C182.29473746 105.54443452 188.14273783 105.80677854 194 106 C195.20398438 106.04253906 196.40796875 106.08507812 197.6484375 106.12890625 C221.65331189 106.54088922 245.64027631 103.35028436 269 98 C269.33 92.39 269.66 86.78 270 81 C267.69 80.01 265.38 79.02 263 78 C259.82380302 75.22927497 258.3417261 73.70863049 257.51953125 69.59765625 C257.28113086 65.31289246 257.48813265 61.99299312 260.125 58.5 C266.21096794 53.20785396 272.71486083 53.74650734 280.375 53.875 C281.90833984 53.88853516 281.90833984 53.88853516 283.47265625 53.90234375 C285.98201522 53.9257957 288.49088336 53.95861645 291 54 C291.00546844 53.17434036 291.00546844 53.17434036 291.01104736 52.33200073 C291.05294677 46.58874708 291.12234387 40.84628705 291.20751953 35.10351562 C291.23569744 32.96199491 291.25692775 30.82037082 291.27099609 28.67871094 C291.29246925 25.59516593 291.33914317 22.51285982 291.390625 19.4296875 C291.39185364 18.47633514 291.39308228 17.52298279 291.39434814 16.54074097 C291.5183235 10.87922069 292.15252127 7.45233408 296 3 C299.60254515 0.46184319 301.56988912 0 306 0 C310.51627974 0.7873208 312.82477973 2.74917925 316 6 C317.78673392 8.93235097 318.24667537 11.07848594 318.22705078 14.49316406 C318.22689972 15.37377502 318.22674866 16.25438599 318.22659302 17.16168213 C318.21627045 18.10348328 318.20594788 19.04528442 318.1953125 20.015625 C318.19106766 21.47207428 318.19106766 21.47207428 318.18673706 22.95794678 C318.17555292 26.05542385 318.15045142 29.1526105 318.125 32.25 C318.11496792 34.35155832 318.10584247 36.45312118 318.09765625 38.5546875 C318.07561934 43.70323669 318.04110145 48.85156913 318 54 C318.65484375 53.97905273 319.3096875 53.95810547 319.984375 53.93652344 C322.98942328 53.85269617 325.99422464 53.80113105 329 53.75 C330.02996094 53.71648437 331.05992187 53.68296875 332.12109375 53.6484375 C338.92696848 53.56173846 343.2083743 54.36012413 349 58 C352.2363584 61.539767 352.58475224 65.12992752 352.4140625 69.77734375 C351.67383472 73.7508306 350.04681484 75.35059579 347 78 C344.03 78.495 344.03 78.495 341 79 C341 154.9 341 230.8 341 309 C342.98 309.66 344.96 310.32 347 311 C349.99907192 313.67308585 351.67629103 315.26540852 352.4140625 319.21875 C352.58553519 323.89527783 352.12719058 327.33363863 349 331 C345.1605458 333.78310979 342.53374395 334.36256764 337.82421875 334.29296875 C336.66728516 334.28330078 335.51035156 334.27363281 334.31835938 334.26367188 C332.52108398 334.2259668 332.52108398 334.2259668 330.6875 334.1875 C329.46998047 334.17396484 328.25246094 334.16042969 326.99804688 334.14648438 C323.99824655 334.11119261 320.99935025 334.06188481 318 334 C318.00888245 334.58580338 318.01776489 335.17160675 318.0269165 335.77516174 C318.11564622 341.89110524 318.17584032 348.00686484 318.21972656 354.12329102 C318.2397992 356.40364005 318.26706343 358.68393789 318.30175781 360.96411133 C318.35046609 364.24833842 318.37301286 367.53188292 318.390625 370.81640625 C318.42159271 372.33712486 318.42159271 372.33712486 318.45318604 373.88856506 C318.4551542 380.1454707 317.77164231 383.93465563 314 389 C310.22608367 391.32241005 307.24969922 392.25941183 302.875 391.9375 C298.22415431 390.8122954 295.41160925 389.30578891 292.88137817 385.17279053 C291.85401921 382.64012534 291.75888164 380.77696187 291.77294922 378.04785156 C291.77310028 377.06713684 291.77325134 376.08642212 291.77340698 375.07598877 C291.78372955 374.02481873 291.79405212 372.97364868 291.8046875 371.890625 C291.80893234 370.26770538 291.80893234 370.26770538 291.81326294 368.61199951 C291.82445391 365.15788696 291.8495568 361.70403412 291.875 358.25 C291.88503119 355.90755583 291.8941568 353.56510759 291.90234375 351.22265625 C291.9243897 345.48168229 291.95785666 339.7408597 292 334 C291.23856689 334.01571045 290.47713379 334.0314209 289.69262695 334.04760742 C286.2326606 334.11008453 282.7728131 334.14903172 279.3125 334.1875 C277.51522461 334.22520508 277.51522461 334.22520508 275.68164062 334.26367188 C274.52470703 334.27333984 273.36777344 334.28300781 272.17578125 334.29296875 C271.11270752 334.3086792 270.04963379 334.32438965 268.9543457 334.34057617 C264.61425113 333.84025125 261.9965259 332.16834071 259.1875 328.875 C257.13063357 323.89521813 257.13063357 319.10478187 259.1875 314.125 C261.27570675 311.6767576 263.08183585 310.35231997 266 309 C267.32 309 268.64 309 270 309 C270 308.01 270 307.02 270 306 C269.41323486 306.11069824 268.82646973 306.22139648 268.22192383 306.33544922 C223.70817448 314.64099492 179.96131562 313.80622177 135.65625 304.69921875 C105.06674739 298.41354623 75.93851781 297.1288031 45 302 C43.54449524 302.21635882 42.08878427 302.43133781 40.6328125 302.64453125 C37.75107349 303.07524278 34.87432632 303.52281692 32 304 C32.23910621 306.44276168 32.23910621 306.44276168 33 309 C34.74228643 310.00020147 36.48846576 310.99610063 38.2734375 311.91796875 C41.20398031 313.75453064 42.00252815 315.75821649 43 319 C43.19410012 323.29552 42.48712676 326.22731618 40.1875 329.875 C36.4028828 333.55148528 33.59662084 334.25102788 28.359375 334.1953125 C27.28945313 334.18886719 26.21953125 334.18242187 25.1171875 334.17578125 C24.00601562 334.15902344 22.89484375 334.14226562 21.75 334.125 C20.62335938 334.11597656 19.49671875 334.10695313 18.3359375 334.09765625 C15.55707635 334.07410658 12.7786461 334.0412168 10 334 C10.00999275 334.86324387 10.00999275 334.86324387 10.02018738 335.743927 C10.08667725 341.7462199 10.13185721 347.74840775 10.16479492 353.75097656 C10.17985964 355.98962658 10.20031533 358.22824719 10.22631836 360.46679688 C10.26280283 363.68887602 10.27974983 366.91056411 10.29296875 370.1328125 C10.30845261 371.12991241 10.32393646 372.12701233 10.33988953 373.15432739 C10.34149476 379.81720506 9.55413359 384.29991592 4.8125 389.3125 C1.20016287 391.47990228 -1.79485971 392.20653931 -6 392 C-10.71064196 390.36939317 -13.26971469 388.14598881 -16 384 C-16.92964441 381.08914504 -17.12208005 378.46049721 -17.11352539 375.41503906 C-17.11344986 374.51440735 -17.11337433 373.61377563 -17.11329651 372.68585205 C-17.10813522 371.72217712 -17.10297394 370.7585022 -17.09765625 369.765625 C-17.09553383 368.27588165 -17.09553383 368.27588165 -17.09336853 366.75604248 C-17.08777588 363.58733088 -17.0752247 360.41869021 -17.0625 357.25 C-17.05748405 355.10026144 -17.05292131 352.95052177 -17.04882812 350.80078125 C-17.03780886 345.53383001 -17.021078 340.26692007 -17 335 C-17.67579102 334.97494385 -18.35158203 334.9498877 -19.04785156 334.92407227 C-22.1154168 334.80789258 -25.18269158 334.68526563 -28.25 334.5625 C-29.84521484 334.50352539 -29.84521484 334.50352539 -31.47265625 334.44335938 C-32.49746094 334.40146484 -33.52226562 334.35957031 -34.578125 334.31640625 C-35.52075195 334.27974854 -36.46337891 334.24309082 -37.43457031 334.20532227 C-40 334 -40 334 -42.05102539 333.39941406 C-44.62100604 332.87273382 -46.13531343 333.4419617 -48.60546875 334.29296875 C-49.94460327 334.74119995 -49.94460327 334.74119995 -51.31079102 335.19848633 C-52.26010498 335.52486084 -53.20941895 335.85123535 -54.1875 336.1875 C-75.03851146 343.08417541 -95.87428631 347.10458459 -117.8984375 347.0234375 C-118.77588623 347.02174561 -119.65333496 347.02005371 -120.55737305 347.01831055 C-122.70491956 347.01392482 -124.85246108 347.00720024 -127 347 C-127.85621516 395.00646609 -127.85621516 395.00646609 -124.28186035 442.81268311 C-123.97109623 445.22430156 -123.67566277 447.63753021 -123.38183594 450.05126953 C-120.25722848 475.56814977 -116.21230554 500.82804986 -111 526 C-110.84656128 526.74572266 -110.69312256 527.49144531 -110.53503418 528.25976562 C-106.71285971 546.80657919 -102.4556205 565.24326053 -97.97265625 583.640625 C-97.79503061 584.37013178 -97.61740498 585.09963856 -97.43439674 585.8512516 C-95.64216019 593.20940664 -93.8429157 600.56572088 -92.02041435 607.91644287 C-79.26686946 659.39867993 -79.26686946 659.39867993 -89.7265625 676.88671875 C-97.29778434 687.94190921 -107.71677581 695.50815893 -120.84741211 698.60522461 C-134.96948134 701.19515156 -148.59804116 698.52646933 -160.62890625 690.73046875 C-167.53659052 685.68911104 -172.163853 680.34238704 -175.94140625 672.640625 C-176.46216988 671.58504898 -176.46216988 671.58504898 -176.99345398 670.50814819 C-180.40961633 663.41450859 -182.93123784 656.11892085 -185.3125 648.625 C-185.80344971 647.11418054 -186.29569241 645.60378079 -186.7890625 644.09375 C-187.90042439 640.68595221 -189.00443251 637.27587769 -190.10400391 633.86425781 C-192.24046499 627.24400122 -194.40673032 620.63358934 -196.57421875 614.0234375 C-196.97472946 612.80183426 -197.37524017 611.58023102 -197.78788757 610.3216095 C-198.61040654 607.81302732 -199.43299323 605.30446734 -200.25564575 602.79592896 C-201.49756102 599.00744015 -202.7381475 595.21851887 -203.97827148 591.42944336 C-210.52714405 571.41793762 -210.52714405 571.41793762 -217.13256836 551.42504883 C-217.61654999 549.96641954 -218.09951014 548.5074508 -218.58129883 547.0480957 C-222.20102744 532.56591788 -222.20102744 532.56591788 -229 520 C-236.08980066 539.41733702 -242.67374415 558.95936647 -248.98945236 578.64015961 C-249.94028697 581.5991789 -250.89558716 584.55674828 -251.85100651 587.51428986 C-256.46109197 601.7853522 -261.0366605 616.06608791 -265.515625 630.37890625 C-266.19299646 632.53478667 -266.87048266 634.69063105 -267.5480957 636.84643555 C-268.7686294 640.73054929 -269.97360068 644.61898257 -271.16870117 648.51098633 C-276.96189811 667.13809672 -284.12029632 683.96601704 -302 694 C-315.90820894 700.21511244 -328.79063192 700.0263204 -343 695 C-354.6858145 689.56104683 -363.30469329 679.94787868 -368 668 C-373.75093193 650.4806047 -366.21003449 629.08653985 -362.30957031 611.83105469 C-360.10304949 602.04654136 -357.99856223 592.239601 -355.89016724 582.43356323 C-355.38041521 580.06285952 -354.86973529 577.69235513 -354.35812378 575.322052 C-349.95553515 554.90525046 -345.90023641 534.43239643 -342.03369141 513.90771484 C-341.83528152 512.85637863 -341.63687164 511.80504242 -341.43244934 510.72184753 C-341.06323603 508.76110024 -340.69615315 506.79995012 -340.33158875 504.83833313 C-340.16971573 503.97604599 -340.00784271 503.11375885 -339.84106445 502.2253418 C-339.7018306 501.47713669 -339.56259674 500.72893158 -339.41914368 499.95805359 C-339 498 -339 498 -338 495 C-339.258125 494.9175 -340.51625 494.835 -341.8125 494.75 C-355.44495958 493.14994606 -367.31661102 485.50815913 -376 475 C-388.24993911 458.53417275 -390.39582179 441.67659468 -390.3125 421.875 C-390.31067719 420.98394562 -390.30885437 420.09289124 -390.30697632 419.17483521 C-390.25791897 404.93494124 -389.60746378 391.03087862 -387 377 C-386.73461426 375.55850586 -386.73461426 375.55850586 -386.46386719 374.08789062 C-378.67806958 333.07462173 -361.93933846 290.86432347 -326.82421875 265.7265625 C-294.63094596 243.97097047 -261.30958485 241.96587429 -223.53042603 241.82476807 C-221.50500053 241.81673423 -219.4795841 241.80573872 -217.45419312 241.79144287 C-197.38111613 241.66499895 -177.67427612 242.80486105 -158 246.9375 C-156.12634766 247.31551758 -156.12634766 247.31551758 -154.21484375 247.70117188 C-149.15843155 248.72343515 -144.10586553 249.76073932 -139.06274414 250.84667969 C-132.13176221 252.30528608 -125.53004109 253.51192468 -118.4375 253.375 C-117.63723389 253.36484863 -116.83696777 253.35469727 -116.01245117 253.34423828 C-91.97473314 252.72425115 -70.26750112 241.59639254 -52.86835957 225.56626034 C-51 224 -51 224 -48.30976391 222.21615696 C-42.40444964 218.12023887 -42.40444964 218.12023887 -38.98261452 212.0086956 C-38.6084352 208.46273085 -38.57256577 205.05868311 -38.65942383 201.49389648 C-38.65265167 200.15265254 -38.6410414 198.81142573 -38.625 197.47026062 C-38.5952904 193.85391656 -38.63267855 190.24109925 -38.68273759 186.62509799 C-38.72356147 182.83739425 -38.70183695 179.05004284 -38.68693542 175.26222229 C-38.66816962 168.10085377 -38.70511373 160.94091566 -38.76240796 153.77979571 C-38.82493515 145.62248912 -38.82485162 137.46555177 -38.81968272 129.30805099 C-38.81045035 112.53813588 -38.8792793 95.76949404 -39 79 C-39.93199219 78.88914062 -40.86398437 78.77828125 -41.82421875 78.6640625 C-45.42358471 77.91142755 -46.84404078 76.68508399 -49.01953125 73.7421875 C-50.68688965 70.77947099 -51 68.37280824 -51 65 C-49.43631089 60.80272923 -47.42104755 57.88650887 -44 55 C-40.95236066 53.98412022 -38.65281033 53.80195594 -35.45703125 53.68359375 C-34.38388672 53.64169922 -33.31074219 53.59980469 -32.20507812 53.55664062 C-31.08552734 53.51732422 -29.96597656 53.47800781 -28.8125 53.4375 C-27.68134766 53.39431641 -26.55019531 53.35113281 -25.38476562 53.30664062 C-22.58996646 53.20050901 -19.79507838 53.09845615 -17 53 C-17.01047363 51.82493896 -17.02094727 50.64987793 -17.03173828 49.43920898 C-17.06808216 45.05772985 -17.09095268 40.67626392 -17.10986328 36.29467773 C-17.11988815 34.40240229 -17.13351155 32.51014222 -17.15087891 30.61791992 C-17.17528222 27.8897725 -17.18651845 25.16183085 -17.1953125 22.43359375 C-17.20563507 21.59477158 -17.21595764 20.7559494 -17.22659302 19.89170837 C-17.22761881 14.45723935 -17.15675198 8.67941889 -13.59765625 4.2578125 C-8.97488483 0.84660713 -5.77313555 -0.56599368 0 0 Z M-15 79 C-15 155.23 -15 231.46 -15 310 C-7.74 310 -0.48 310 7 310 C7.15412037 282.68680884 7.30237152 255.37359283 7.4429636 228.06032848 C7.50839693 215.37670804 7.57585937 202.6931046 7.64819336 190.00952148 C7.71127579 178.94725637 7.77045453 167.88497824 7.82505554 156.8226679 C7.85406702 150.97189411 7.88495859 145.12114459 7.92053413 139.27040672 C7.95404522 133.74900539 7.982286 128.22760075 8.00670624 122.70615196 C8.01649608 120.69358818 8.02811378 118.68103221 8.04183006 116.66849136 C8.12640979 104.06380997 7.77002599 91.58387746 7 79 C-0.26 79 -7.52 79 -15 79 Z M295 79 C295 154.9 295 230.8 295 309 C302.26 309 309.52 309 317 309 C317 233.43 317 157.86 317 80 C309.87827589 78.21956897 302.34090518 79 295 79 Z M32 122 C32 173.81 32 225.62 32 279 C38.93 278.01 38.93 278.01 46 277 C79.49849341 272.5389911 110.2012089 273.9350388 143.1875 281 C173.20232712 287.42232964 202.98517096 289.73888982 233.625 286.8125 C234.71893066 286.71179199 235.81286133 286.61108398 236.93994141 286.50732422 C248.61141756 285.24301356 259.33104678 282.53672896 271 280 C270.67 228.52 270.34 177.04 270 124 C251.685 126.475 251.685 126.475 233 129 C217.91327346 130.16051743 217.91327346 130.16051743 211 130.203125 C209.81483543 130.2138504 209.81483543 130.2138504 208.60572815 130.22479248 C179.91124404 130.42491674 152.77757844 127.74921799 124.68383789 121.86914062 C109.88935977 118.79271814 95.14938566 116.60177817 80 116.6875 C78.96746094 116.69023926 77.93492187 116.69297852 76.87109375 116.69580078 C61.74362468 116.89376856 46.75448477 118.72122561 32 122 Z M-45.1875 251.4375 C-70.40765463 271.94699356 -99.79899946 280.02463896 -132 278 C-139.44862294 277.06066837 -146.73507978 275.38738597 -154.03808594 273.67578125 C-158.85590994 272.57656127 -163.70666342 271.66357253 -168.5625 270.75 C-169.40095459 270.58725586 -170.23940918 270.42451172 -171.10327148 270.25683594 C-171.89548096 270.10504883 -172.68769043 269.95326172 -173.50390625 269.796875 C-174.18267822 269.66635742 -174.8614502 269.53583984 -175.56079102 269.40136719 C-181.58245312 268.41051417 -187.40178541 267.87194526 -193.50732422 267.83886719 C-194.21109695 267.83390228 -194.91486969 267.82893738 -195.63996887 267.82382202 C-197.94488547 267.80934337 -200.24973308 267.80241932 -202.5546875 267.796875 C-203.35232639 267.79404762 -204.14996529 267.79122025 -204.97177505 267.78830719 C-209.2005877 267.77336589 -213.42936673 267.7641069 -217.65820312 267.75976562 C-221.97220087 267.75431598 -226.28587742 267.73034822 -230.59977531 267.70179367 C-233.96321431 267.68293048 -237.32657993 267.67794911 -240.69006729 267.67642975 C-242.27729149 267.67345115 -243.86451598 267.66559083 -245.45168686 267.65224457 C-273.47614103 267.43357945 -299.94785808 274.77127195 -321 294 C-321.76699219 294.68578125 -322.53398437 295.3715625 -323.32421875 296.078125 C-351.72179009 322.84023412 -363.03751001 368.43082665 -364.90625 406.0859375 C-364.9371875 407.37757813 -364.968125 408.66921875 -365 410 C-365.02578125 410.95551758 -365.0515625 411.91103516 -365.078125 412.89550781 C-365.87090809 436.5438392 -365.87090809 436.5438392 -357 458 C-356.1646875 459.3303125 -356.1646875 459.3303125 -355.3125 460.6875 C-350.49298771 465.50701229 -344.97572224 468.6692961 -338.31713867 470.08325195 C-337.10377083 470.3436602 -337.10377083 470.3436602 -335.8658905 470.60932922 C-335.25014664 470.73825058 -334.63440277 470.86717194 -334 471 C-332.47485563 461.80194353 -330.9551864 452.60299077 -329.43835449 443.40356064 C-329.06398849 441.13402373 -328.68913325 438.86456803 -328.31420898 436.59512329 C-325.57830979 420.02576192 -322.88608223 403.45212928 -320.37109375 386.84765625 C-320.16583394 385.49732608 -319.96051742 384.14700452 -319.75514221 382.79669189 C-318.79142355 376.45194613 -317.84044887 370.10554795 -316.90649414 363.75634766 C-316.56301302 361.47683522 -316.21920076 359.19737264 -315.875 356.91796875 C-315.72852524 355.89284683 -315.58205048 354.86772491 -315.43113708 353.8115387 C-314.52593826 347.89428165 -313.58643835 342.58643835 -309.1875 338.1875 C-306.31527951 336.62829459 -304.28126682 336.12867713 -301 336 C-297.19440396 337.1610293 -294.75539561 338.17150159 -292.0625 341.125 C-288.98156291 349.4616533 -291.80225922 359.50930341 -293.125 368.01953125 C-293.34988192 369.49922998 -293.57416682 370.97901956 -293.79789734 372.45889282 C-294.39862761 376.4205988 -295.00763566 380.3809867 -295.61892319 384.3410759 C-296.26197013 388.51147319 -296.89986407 392.68265914 -297.53833008 396.85375977 C-298.3095284 401.89055785 -299.08140971 406.92724598 -299.85664368 411.96342468 C-301.26748316 421.13856196 -302.63869373 430.31770516 -303.94921875 439.5078125 C-310.96035688 488.26892635 -320.93198809 536.58999422 -331.26171875 584.7421875 C-331.48093805 585.76474199 -331.70015736 586.78729649 -331.92601967 587.84083748 C-334.07441384 597.85564373 -336.23438683 607.8677526 -338.43025684 617.87226486 C-339.23803529 621.55839406 -340.03899972 625.24598552 -340.8389225 628.93382645 C-341.21187332 630.64389351 -341.58823791 632.35322027 -341.96831322 634.06171799 C-345.95326016 649.34474087 -345.95326016 649.34474087 -342.33203125 664.14453125 C-338.70236299 669.20052076 -334.16516104 672.76696779 -328 674 C-321.2373974 674.82126483 -315.75745906 673.69745077 -310 670 C-299.3003693 661.29150712 -295.77572479 644.88111122 -291.734375 632.19140625 C-291.25182881 630.69365308 -290.76867975 629.19609402 -290.28497314 627.69871521 C-289.02037811 623.77860933 -287.76375766 619.85599429 -286.50897217 615.93273926 C-285.26463647 612.04672942 -284.01291763 608.1631012 -282.76171875 604.27929688 C-280.79253773 598.16388441 -278.82737518 592.04719644 -276.86547852 585.92944336 C-274.11014435 577.33826334 -271.34433355 568.75048676 -268.57421875 560.1640625 C-268.18397522 558.95387955 -267.79373169 557.74369659 -267.3916626 556.49684143 C-265.39990371 550.3239365 -263.40317838 544.15265387 -261.40014648 537.98339844 C-261.01189194 536.78745056 -260.62363739 535.59150269 -260.22361755 534.35931396 C-256.51054664 523.01716197 -252.52260635 511.80543579 -248.1875 500.6875 C-247.5214978 498.971073 -247.5214978 498.971073 -246.84204102 497.2199707 C-240.19125189 480.47488108 -240.19125189 480.47488108 -234.75 476.8125 C-230.08885327 475.80258487 -226.35307329 475.96959126 -222 478 C-216.40960374 482.25934953 -214.50888673 488.09951172 -212 494.5 C-211.53070068 495.6763501 -211.06140137 496.8527002 -210.57788086 498.06469727 C-206.67432067 507.93712546 -203.08437139 517.92363485 -199.5625 527.9375 C-199.32184814 528.62134766 -199.08119629 529.30519531 -198.83325195 530.00976562 C-190.73018427 553.12497818 -183.1145098 576.41895701 -175.56075478 599.71846199 C-174.79068969 602.09263947 -174.01928252 604.46637632 -173.24736023 606.83995056 C-172.99310115 607.62179687 -172.73884207 608.40364317 -172.47687817 609.20918179 C-171.96433508 610.78505924 -171.45172197 612.36091393 -170.93903828 613.93674564 C-169.63653241 617.94239176 -168.33825721 621.9493357 -167.04736328 625.95874023 C-165.75923441 629.95858632 -164.46035845 633.95480214 -163.15436935 637.94885063 C-162.66975864 639.43730176 -162.18891798 640.92698692 -161.71229935 642.41801643 C-156.19089739 660.41058679 -156.19089739 660.41058679 -143 673 C-136.24489849 676.23070072 -128.79110281 675.90055439 -121.8125 673.5 C-115.51499438 670.70331247 -111.56126943 666.19042014 -108.5625 660.0625 C-107.03115788 651.72519289 -108.55548824 644.37484426 -110.54296875 636.27734375 C-110.81151169 635.14973129 -111.08005463 634.02211884 -111.35673523 632.8603363 C-112.22462153 629.23687486 -113.10948308 625.6179624 -114 622 C-114.28973694 620.82109192 -114.57947388 619.64218384 -114.87799072 618.42755127 C-116.37527814 612.35256584 -117.88643843 606.28111806 -119.40405273 600.21118164 C-126.22064996 572.93004439 -132.71031554 545.62461954 -138 518 C-138.17404358 517.09795837 -138.34808716 516.19591675 -138.52740479 515.26654053 C-142.89338517 492.5859491 -146.50395917 469.91045838 -148.9375 446.9375 C-149.09043518 445.50222961 -149.09043518 445.50222961 -149.24645996 444.03796387 C-151.23962926 425.01764568 -152.21435448 405.99837384 -152.1875 386.875 C-152.18709213 385.75624985 -152.18709213 385.75624985 -152.18667603 384.61489868 C-152.16694857 372.62360604 -151.81017066 360.66213111 -151.1875 348.6875 C-151.15256439 347.94216003 -151.11762878 347.19682007 -151.08163452 346.42889404 C-150.97909798 344.30956992 -150.85796889 342.19217131 -150.73046875 340.07421875 C-150.66239014 338.87369873 -150.59431152 337.67317871 -150.52416992 336.4362793 C-149.79935476 331.68463823 -148.53561334 327.69226448 -145.26489258 324.08789062 C-142.03602146 322.53697441 -139.33586321 322.61325783 -135.76171875 322.59375 C-134.29866359 322.57418813 -132.83561027 322.5544886 -131.37255859 322.53466797 C-130.60804382 322.52965271 -129.84352905 322.52463745 -129.05584717 322.51947021 C-103.04257499 322.30561474 -58.80841542 321.80841542 -39 302 C-38.90646837 300.31198015 -38.88255209 298.62004793 -38.88647461 296.92944336 C-38.88658791 295.30787575 -38.88658791 295.30787575 -38.88670349 293.65354919 C-38.89186478 292.4775264 -38.89702606 291.3015036 -38.90234375 290.08984375 C-38.9037587 288.89267227 -38.90517365 287.69550079 -38.90663147 286.46205139 C-38.91225021 282.62050934 -38.92480589 278.77902457 -38.9375 274.9375 C-38.94251259 272.34049563 -38.94707591 269.74349035 -38.95117188 267.14648438 C-38.96222573 260.76430321 -38.97898208 254.3821557 -39 248 C-41.93997902 248 -42.97348844 249.53500766 -45.1875 251.4375 Z " fill="#C31B54" transform="translate(532,166)"/>
<path d="M0 0 C1.60681641 0.56074219 1.60681641 0.56074219 3.24609375 1.1328125 C14.79179693 5.57459895 24.22241037 12.36490371 33 21 C33.7734375 21.76054687 34.546875 22.52109375 35.34375 23.3046875 C51.8298311 40.52473797 57.4897946 62.21795797 57.2109375 85.44140625 C56.62175263 107.03394049 46.70157742 125.63974976 32 141 C31.13761719 141.95712891 31.13761719 141.95712891 30.2578125 142.93359375 C16.09948105 158.141945 -5.22141171 164.5633464 -25.3203125 166.1875 C-47.73332578 166.86926466 -69.29842498 158.88314557 -86 144 C-86.75925781 143.33484375 -87.51851562 142.6696875 -88.30078125 141.984375 C-102.54919776 128.69569639 -113.20004783 107.53216555 -114 88 C-114.0515625 86.85273438 -114.103125 85.70546875 -114.15625 84.5234375 C-114.75511754 64.59995585 -109.79100607 46.26429498 -98 30 C-97.34386719 29.08605469 -96.68773437 28.17210937 -96.01171875 27.23046875 C-74.25111939 -1.21345911 -33.42557519 -11.74308382 0 0 Z M-52 26 C-52.85335937 26.32742187 -53.70671875 26.65484375 -54.5859375 26.9921875 C-66.70796802 32.23104611 -77.46233987 43.4929896 -82.49609375 55.59765625 C-88.38556024 71.31979486 -89.70478787 88.23708812 -83 104 C-82.50886719 105.28003906 -82.50886719 105.28003906 -82.0078125 106.5859375 C-76.31380216 119.76112932 -63.67634064 130.77135861 -50.5390625 136.15625 C-33.31281566 141.88066433 -16.97044744 141.31136833 -0.625 133.25 C13.28526383 126.04268603 22.68862095 114.84771871 28 100 C33.30772664 82.49306294 31.45872315 66.21901961 23 50 C20.90271484 46.74824594 18.59873527 43.86204325 16 41 C15.45601563 40.37609375 14.91203125 39.7521875 14.3515625 39.109375 C5.09709485 29.11628787 -9.30376214 22.2771246 -22.91796875 21.6640625 C-33.2536027 21.48789245 -42.34631607 21.89378515 -52 26 Z " fill="#C21B54" transform="translate(334,225)"/>
<path d="M0 0 C11.53393581 3.7175682 22.45299068 6.38703918 34.56298828 7.2109375 C35.38541016 7.28183594 36.20783203 7.35273438 37.05517578 7.42578125 C45.80030702 7.83828744 56.09419286 5.79838362 64.18798828 2.5234375 C67.72385523 1.14837813 69.82197666 0.64165312 73.56298828 1.2109375 C77.53171386 3.34794358 79.9361661 4.99353591 81.56298828 9.2109375 C81.71533203 11.39453125 81.71533203 11.39453125 81.50048828 13.6484375 C81.44763672 14.38964844 81.39478516 15.13085938 81.34033203 15.89453125 C80.18081021 19.34978973 78.36626601 20.91255119 75.56298828 23.2109375 C73.0241424 24.30874013 70.7576686 25.15496814 68.12548828 25.8984375 C67.06769165 26.20914185 67.06769165 26.20914185 65.98852539 26.52612305 C37.4585329 34.58470133 10.31081334 28.50017938 -16.92138672 19.0078125 C-27.57018438 15.63459088 -40.96182133 15.70695492 -51.43310547 19.53125 C-55.62341608 20.95252494 -59.11968168 20.71990593 -63.18701172 19.1484375 C-66.2776921 16.48701829 -67.25318977 14.09124279 -68.43701172 10.2109375 C-68.43701172 6.25530344 -67.78630662 4.66607935 -65.37451172 1.5234375 C-47.28912444 -12.71399504 -19.76360064 -6.39911413 0 0 Z " fill="#C31D55" transform="translate(676.43701171875,381.7890625)"/>
<path d="M0 0 C8.77644714 2.64603764 17.39529214 4.85759901 26.5612793 5.51342773 C27.30764648 5.56756836 28.05401367 5.62170898 28.82299805 5.67749023 C37.66053364 5.99885517 47.10836112 4.42927326 55.22924805 0.93530273 C59.52789077 -0.8990536 62.9695312 -1.27052926 67.5612793 -0.48657227 C71.16634983 1.66112933 72.9933309 3.6673839 74.5612793 7.51342773 C74.7487793 9.69702148 74.7487793 9.69702148 74.5612793 11.95092773 C74.5200293 12.69213867 74.4787793 13.43334961 74.4362793 14.19702148 C73.11622667 17.69162509 70.61213963 19.54916934 67.5612793 21.51342773 C40.24712343 33.49821041 12.92880663 28.51051682 -14.41870117 19.95629883 C-29.66666117 15.21289292 -44.35700428 13.49511306 -59.8840332 17.89233398 C-63.43657539 18.75602543 -65.96713055 18.64700819 -69.4387207 17.51342773 C-72.02169852 15.32351176 -73.92287914 13.54511086 -75.4387207 10.51342773 C-75.65707406 5.68117311 -75.18163685 2.41274728 -72.0637207 -1.36157227 C-52.25247571 -15.23901441 -20.68595973 -6.23925074 0 0 Z " fill="#C31C55" transform="translate(683.438720703125,332.486572265625)"/>
<path d="M0 0 C-0.33 11.55 -0.66 23.1 -1 35 C-1.33 35 -1.66 35 -2 35 C-2.60465428 23.66112404 -3.18966094 12.35858317 -3 1 C-1 0 -1 0 0 0 Z " fill="#C7465F" transform="translate(542,265)"/>
<path d="M0 0 C0.33 0 0.66 0 1 0 C1 1.65 1 3.3 1 5 C1.66 5.33 2.32 5.66 3 6 C2.79503906 6.78503906 2.59007812 7.57007813 2.37890625 8.37890625 C0.96045756 13.91017745 -0.35496637 19.32370402 -1 25 C-1.66 25 -2.32 25 -3 25 C-2.4237919 16.58432901 -1.38227951 8.32051741 0 0 Z " fill="#C43156" transform="translate(213,537)"/>
<path d="M0 0 C1.45002516 4.77171399 -0.03357399 7.95976731 -2.125 12.375 C-2.41375 12.91125 -2.7025 13.4475 -3 14 C-3.66 14 -4.32 14 -5 14 C-5.33 15.65 -5.66 17.3 -6 19 C-6.66 19 -7.32 19 -8 19 C-6.00386732 12.2813095 -3.2708579 6.19265192 0 0 Z " fill="#C5355D" transform="translate(167,476)"/>
<path d="M0 0 C2.64597242 4.48797629 1.96091068 8.0455798 1 13 C-0.0625 16.0625 -0.0625 16.0625 -1 18 C-1.66 17.67 -2.32 17.34 -3 17 C-2.68985608 14.91631462 -2.3767948 12.83306332 -2.0625 10.75 C-1.88847656 9.58984375 -1.71445313 8.4296875 -1.53515625 7.234375 C-1.1272264 4.76893039 -0.66098697 2.40575438 0 0 Z " fill="#C4315A" transform="translate(177,745)"/>
<path d="M0 0 C5.28088275 4.37558857 7.42393984 9.74072191 10 16 C9.34 16.66 8.68 17.32 8 18 C6.84917315 15.75243216 5.70423142 13.50218252 4.5625 11.25 C4.23701172 10.61578125 3.91152344 9.9815625 3.57617188 9.328125 C2.02936335 6.26640092 0.6084922 3.39384379 0 0 Z " fill="#C33157" transform="translate(353,268)"/>
<path d="M0 0 C0.99 0 1.98 0 3 0 C3.36552803 1.41377782 3.71695495 2.83120576 4.0625 4.25 C4.25972656 5.03890625 4.45695312 5.8278125 4.66015625 6.640625 C5.01497267 9.10394822 4.76877544 10.65604132 4 13 C3 12 3 12 2.9375 9.4375 C2.958125 8.633125 2.97875 7.82875 3 7 C2.34 7 1.68 7 1 7 C0.67 4.69 0.34 2.38 0 0 Z " fill="#C6305A" transform="translate(440,786)"/>
<path d="M0 0 C0.33 0 0.66 0 1 0 C0.8858134 1.93816735 0.75826577 3.87555099 0.625 5.8125 C0.55539062 6.89144531 0.48578125 7.97039063 0.4140625 9.08203125 C0 12 0 12 -2 15 C-2.66 15 -3.32 15 -4 15 C-2.9318153 9.88634986 -1.76892524 4.92772031 0 0 Z " fill="#C6315A" transform="translate(257,743)"/>
<path d="M0 0 C0.66 0.99 1.32 1.98 2 3 C0.02 5.31 -1.96 7.62 -4 10 C-4.99 9.67 -5.98 9.34 -7 9 C-6.02180976 7.68677212 -5.0424189 6.37443848 -4.0625 5.0625 C-3.51722656 4.33160156 -2.97195312 3.60070312 -2.41015625 2.84765625 C-1 1 -1 1 0 0 Z " fill="#C22A57" transform="translate(245,244)"/>
<path d="M0 0 C0 3 0 3 -2 6 C-2.66 6 -3.32 6 -4 6 C-3.67 8.31 -3.34 10.62 -3 13 C-3.99 13.495 -3.99 13.495 -5 14 C-5.90761769 9.37114979 -6.48984886 6.14974809 -4 2 C-1.875 0.6875 -1.875 0.6875 0 0 Z " fill="#C63560" transform="translate(487,224)"/>
<path d="M0 0 C0 3 0 3 -1.625 5.625 C-4.43693229 8.43693229 -6.10240081 8.7342546 -10 9 C-6.83047153 5.73991357 -3.60062011 2.77762123 0 0 Z " fill="#C32D56" transform="translate(479,392)"/>
<path d="M0 0 C2.31 0.33 4.62 0.66 7 1 C7 1.99 7 2.98 7 4 C4.36 3.67 1.72 3.34 -1 3 C-0.67 2.01 -0.34 1.02 0 0 Z " fill="#C93E63" transform="translate(832,554)"/>
<path d="M0 0 C0.66 0.66 1.32 1.32 2 2 C-1.47325181 3.1577506 -4.36067448 3.06866652 -8 3 C-8.33 2.34 -8.66 1.68 -9 1 C-5.98675805 -0.50662097 -3.31713623 -0.17770373 0 0 Z " fill="#C7355E" transform="translate(624,399)"/>
<path d="M0 0 C0.20086443 3.71599191 0.1519437 4.77208445 -2 8 C-2.99 8 -3.98 8 -5 8 C-3.91891892 0 -3.91891892 0 0 0 Z " fill="#C52D59" transform="translate(521,169)"/>
<path d="M0 0 C0.33 0 0.66 0 1 0 C1.33730842 1.43657245 1.66969591 2.87430093 2 4.3125 C2.185625 5.11300781 2.37125 5.91351563 2.5625 6.73828125 C3 9 3 9 3 12 C0.16303761 9.2863838 -0.95941032 7.99444711 -1.125 3.9375 C-1 1 -1 1 0 0 Z " fill="#C8405F" transform="translate(609,336)"/>
<path d="M0 0 C1.88391785 3.26545761 2.49287967 6.28111761 3 10 C1.68 9.34 0.36 8.68 -1 8 C-0.67 5.36 -0.34 2.72 0 0 Z " fill="#C52C5D" transform="translate(149,524)"/>
<path d="M0 0 C-1.17255709 3.33727786 -2.18868404 5.77437487 -5 8 C-5.66 8 -6.32 8 -7 8 C-4.18918919 0 -4.18918919 0 0 0 Z " fill="#C52C54" transform="translate(389,489)"/>
<path d="M0 0 C0.66 0 1.32 0 2 0 C2.33 0.99 2.66 1.98 3 3 C1.68 4.32 0.36 5.64 -1 7 C-1.99 6.34 -2.98 5.68 -4 5 C-2.71937515 3.2925002 -1.38232443 1.62626404 0 0 Z " fill="#C63661" transform="translate(180,456)"/>
<path d="M0 0 C0.33 0.66 0.66 1.32 1 2 C1.99 2 2.98 2 4 2 C4.103125 2.639375 4.20625 3.27875 4.3125 3.9375 C4.539375 4.618125 4.76625 5.29875 5 6 C5.99 6.33 6.98 6.66 8 7 C7.34 7.66 6.68 8.32 6 9 C4.99105628 8.07213211 3.99309093 7.13231567 3 6.1875 C2.1646875 5.40439453 2.1646875 5.40439453 1.3125 4.60546875 C0 3 0 3 0 0 Z " fill="#C52F55" transform="translate(172,845)"/>
<path d="M0 0 C1.03159626 3.09478879 0.97482862 4.52631393 0.5625 7.6875 C0.46066406 8.49574219 0.35882813 9.30398438 0.25390625 10.13671875 C0.17011719 10.75160156 0.08632813 11.36648438 0 12 C-2 10 -2 10 -2.01171875 8.125 C-1.90472656 7.42375 -1.79773438 6.7225 -1.6875 6 C-1.58824219 5.29875 -1.48898437 4.5975 -1.38671875 3.875 C-1 2 -1 2 0 0 Z " fill="#C62D60" transform="translate(274,761)"/>
<path d="M0 0 C0.33 0 0.66 0 1 0 C1 1.65 1 3.3 1 5 C1.66 5.33 2.32 5.66 3 6 C2.34 7.98 1.68 9.96 1 12 C0.34 12 -0.32 12 -1 12 C-0.67 8.04 -0.34 4.08 0 0 Z " fill="#CA4068" transform="translate(213,537)"/>
<path d="M0 0 C0 0.66 0 1.32 0 2 C0.66 2 1.32 2 2 2 C2 2.66 2 3.32 2 4 C-0.64 3.34 -3.28 2.68 -6 2 C-6 1.34 -6 0.68 -6 0 C-3 -1 -3 -1 0 0 Z " fill="#C5335A" transform="translate(387,860)"/>
<path d="M0 0 C1.32 0.33 2.64 0.66 4 1 C3.01 2.32 2.02 3.64 1 5 C-0.32 4.67 -1.64 4.34 -3 4 C-2.01 2.68 -1.02 1.36 0 0 Z " fill="#BC1445" transform="translate(613,330)"/>
<path d="M0 0 C0.66 0.33 1.32 0.66 2 1 C2 1.99 2 2.98 2 4 C0.02 4.66 -1.96 5.32 -4 6 C-1.125 1.125 -1.125 1.125 0 0 Z " fill="#C73660" transform="translate(829,168)"/>
<path d="M0 0 C0.66 1.32 1.32 2.64 2 4 C0.68 5.32 -0.64 6.64 -2 8 C-2.66 7.34 -3.32 6.68 -4 6 C-2.68 4.02 -1.36 2.04 0 0 Z " fill="#C62E5C" transform="translate(229,826)"/>
<path d="M0 0 C3.36720387 1.39332574 4.9859524 2.9789286 7 6 C4 6 4 6 1.8125 4.125 C0 2 0 2 0 0 Z " fill="#C94165" transform="translate(260,345)"/>
<path d="M0 0 C2.5 2.3125 2.5 2.3125 5 5 C5 5.99 5 6.98 5 8 C2.5 6.25 2.5 6.25 0 4 C0 2.68 0 1.36 0 0 Z " fill="#CE5074" transform="translate(189,829)"/>
<path d="M0 0 C0.66 0 1.32 0 2 0 C3.32 2.31 4.64 4.62 6 7 C5.01 7 4.02 7 3 7 C0 2.77777778 0 2.77777778 0 0 Z " fill="#C63B5F" transform="translate(150,630)"/>
<path d="M0 0 C0 0.99 0 1.98 0 3 C-2.26216255 4.54779543 -4.55224566 5.77612283 -7 7 C-5.54744301 3.17053157 -3.57104439 1.87949705 0 0 Z " fill="#BA1541" transform="translate(253,239)"/>
</svg>
